 http://www.scenespeeds.com/

Description
 
http://www.imdb.com/title/tt1606389/
General
Complete name: The Vow 2012 TS XVID AC3-TRiNiTY .avi
Format: AVI
Format/Info: Audio Video Interleave
File size: 833 MiB
Duration: 1h 39mn
Overall bit rate: 1 170 Kbps
Writing library: VirtualDub build 30091/release

Video
ID: 0
Format: MPEG-4 Visual
Format profile: Advanced Simple@L5
Format settings, BVOP: 2
Format settings, QPel: No
Format settings, GMC: No warppoints
Format settings, Matrix: Default (H.263)
Codec ID: XVID
Codec ID/Hint: XviD
Duration: 1h 39mn
Bit rate: 776 Kbps
Width: 720 pixels
Height: 304 pixels
Display aspect ratio: 2.35:1
Frame rate: 25.000 fps
Color space: YUV
Chroma subsampling: 4:2:0
Bit depth: 8 bits
Scan type: Progressive
Compression mode: Lossy
Bits/(Pixel*Frame): 0.142
Stream size: 553 MiB (66%)
Writing library: XviD 1.2.1 (UTC 2008-12-04)

Audio
ID: 1
Format: AC-3
Format/Info: Audio Coding 3
Mode extension: CM (complete main)
Codec ID: 2000
Duration: 1h 39mn
Bit rate mode: Constant
Bit rate: 384 Kbps
Channel(s): 2 channels
Channel positions: Front: L R
Sampling rate: 48.0 KHz
Bit depth: 16 bits
Compression mode: Lossy
Stream size: 273 MiB (33%)
Alignment: Aligned on interleaves
Interleave, duration: 40 ms (1.00 video frame)
Interleave, preload duration: 512 ms

SOURCE:
The Vow:BBnRG.Thanks
Sample:Yes

       
http://www.scenespeeds.com/	